<svg width="505" height="122" viewBox="0 0 505 122" fill="none" xmlns="http://www.w3.org/2000/svg">
<path d="M108.436 78.3612V77.7088C108.436 62.7742 116.556 55.319 126.319 55.319C130.886 55.319 134.209 56.5636 136.613 58.7264C137.701 59.7051 139.441 58.956 139.441 57.4819V39.5266C139.441 38.5962 140.202 37.835 141.132 37.835H153.916C154.846 37.835 155.608 38.5962 155.608 39.5266V97.6698C155.608 98.6002 154.846 99.3614 153.916 99.3614H141.132C140.202 99.3614 139.441 98.6002 139.441 97.6698C139.441 96.1594 137.64 95.4345 136.553 96.4857C134.1 98.8539 130.644 100.437 126.319 100.437C116.64 100.437 108.436 93.4649 108.436 78.3733V78.3612ZM139.852 78.035V77.3825C139.852 70.9061 137.23 67.2932 132.384 67.2932C127.539 67.2932 124.832 70.5798 124.832 77.4671V78.1196C124.832 84.7652 127.539 88.1243 132.3 88.1243C137.06 88.1243 139.852 84.6806 139.852 78.035Z" fill="#282828"/>
<path d="M161.093 87.4597C161.093 77.3704 169.298 73.4314 184.148 73.4314H187.096C187.507 73.4314 187.833 73.1051 187.833 72.6943C187.833 69.0815 187.18 66.4595 182.831 66.4595C179.472 66.4595 178.215 68.429 177.84 70.4469C177.768 70.7973 177.478 71.051 177.115 71.051H169.503C165.407 71.051 162.906 66.5079 165.129 63.0763C168.524 57.8565 175.158 55.2103 183.809 55.2103C196.279 55.2103 203.819 60.2972 203.819 71.6189V98.6123C203.819 99.0231 203.492 99.3493 203.082 99.3493H188.969C188.558 99.3493 188.232 99.0231 188.232 98.6123V96.6307C188.232 95.954 187.398 95.6399 186.939 96.1473C184.824 98.4552 181.296 100.425 175.678 100.425C167.969 100.425 161.081 96.6548 161.081 87.4597H161.093ZM187.833 84.3423V82.8682C187.833 82.4574 187.507 82.1311 187.096 82.1311H184.389C178.976 82.1311 177.007 83.1944 177.007 86.2272C177.007 88.2813 178.565 89.5863 181.514 89.5863C185.199 89.5863 187.833 87.5322 187.833 84.3423Z" fill="#282828"/>
<path d="M210.259 85.5748H222.257C222.922 85.5748 223.502 86.0097 223.683 86.6501C224.287 88.7767 225.58 90.0092 228.77 90.0092C231.96 90.0092 233.277 88.7767 233.277 86.9764C233.277 85.176 231.477 84.1006 225.725 83.3636C214.162 82.0465 209.075 78.9291 209.075 69.7461C209.075 59.8985 217.69 55.2224 228.19 55.2224C238.69 55.2224 245.94 58.4969 247.559 67.6557C247.716 68.562 247.027 69.4078 246.097 69.4078H234.413C233.772 69.4078 233.217 68.9969 233.011 68.3928C232.359 66.4716 230.969 65.3841 228.432 65.3841C225.483 65.3841 224.166 66.7012 224.166 68.3324C224.166 70.3019 226.136 71.1235 230.897 71.6189C243.282 73.0931 249.021 76.0534 249.021 85.321C249.021 95.9057 240.986 100.413 228.843 100.413C216.699 100.413 209.812 95.8453 208.785 87.2422C208.676 86.3481 209.353 85.5627 210.259 85.5627V85.5748Z" fill="#282828"/>
<path d="M255.389 37.835H269.163C269.828 37.835 270.36 38.3666 270.36 39.0312V59.536C270.36 60.6355 271.713 61.143 272.45 60.3214C275.084 57.361 279.059 55.319 284.545 55.319C292.665 55.319 298.332 60.4905 298.332 71.1477V98.1773C298.332 98.8418 297.8 99.3735 297.135 99.3735H283.361C282.696 99.3735 282.165 98.8418 282.165 98.1773V74.7605C282.165 70.4106 280.606 68.1995 276.751 68.1995C272.897 68.1995 270.347 70.5798 270.347 75.6667V98.1773C270.347 98.8418 269.816 99.3735 269.151 99.3735H255.377C254.712 99.3735 254.18 98.8418 254.18 98.1773V39.0312C254.18 38.3666 254.712 37.835 255.377 37.835H255.389Z" fill="#282828"/>
<path d="M302.512 56.4548H317.749C318.087 56.4548 318.389 56.6965 318.474 57.0227L323.259 77.6363C323.428 78.3854 324.491 78.4096 324.685 77.6604L330.327 56.9865C330.412 56.6602 330.702 56.4427 331.04 56.4427H342.857C343.196 56.4427 343.498 56.6723 343.57 57.0106L348.5 77.6483C348.681 78.3975 349.733 78.4096 349.926 77.6725L355.508 56.9865C355.593 56.6602 355.883 56.4427 356.221 56.4427H369.742C370.237 56.4427 370.6 56.9261 370.443 57.4094L357.296 98.8298C357.2 99.1318 356.91 99.3493 356.596 99.3493H342.531C342.193 99.3493 341.903 99.1198 341.818 98.8056L336.695 79.642C336.502 78.905 335.463 78.9171 335.269 79.642L330.219 98.7935C330.134 99.1198 329.844 99.3493 329.506 99.3493H314.958C314.632 99.3493 314.342 99.1318 314.245 98.8177L301.811 57.3973C301.666 56.9261 302.029 56.4427 302.524 56.4427L302.512 56.4548Z" fill="#282828"/>
<path d="M370.914 78.4458V77.7933C370.914 63.8496 381.329 55.319 394.862 55.319C408.395 55.319 418.654 63.608 418.654 77.3825V78.035C418.654 92.1479 408.154 100.425 394.778 100.425C381.402 100.425 370.902 92.5466 370.902 78.4458H370.914ZM402.245 78.1196V77.5396C402.245 70.8094 399.865 67.2087 394.862 67.2087C389.86 67.2087 387.238 70.5677 387.238 77.2979V77.9504C387.238 84.9223 389.703 88.5351 394.862 88.5351C400.022 88.5351 402.245 84.9223 402.245 78.1196Z" fill="#282828"/>
<path d="M425.759 56.4548H439.026C439.823 56.4548 440.476 57.1073 440.476 57.9048V59.7656C440.476 61.1309 442.191 61.7351 443.037 60.6718C445.478 57.639 448.74 56.1648 452.74 55.9111C453.561 55.8628 454.25 56.5273 454.25 57.3611V69.4803C454.25 70.2898 453.586 70.9302 452.776 70.9181C444.777 70.8215 440.476 73.7818 440.476 79.5816V97.9115C440.476 98.7089 439.823 99.3614 439.026 99.3614H425.759C424.961 99.3614 424.309 98.7089 424.309 97.9115V57.9048C424.309 57.1073 424.961 56.4548 425.759 56.4548Z" fill="#282828"/>
<path d="M471.154 77.6242L459.107 58.3277C458.6 57.5181 459.18 56.4669 460.147 56.4669H476.483L482.307 66.967L488.131 56.4669H504.624L491.248 76.4038L504.805 97.4886C505.325 98.2981 504.745 99.3735 503.778 99.3735H487.478L480.591 87.3993L473.377 99.3735H457.053L471.166 77.6363L471.154 77.6242Z" fill="#177091"/>
<path d="M52.0568 42.2694L71.4741 5.83932C72.4649 3.99062 70.2174 2.11777 68.5742 3.41064L0.740436 56.8415C-0.588689 57.8927 -0.0328731 60.0193 1.64666 60.273L40.2517 66.2178L4.01492 118.585C2.87912 120.217 5.00572 122.126 6.51609 120.821L91.858 47.0422C93.2838 45.8097 92.4501 43.4777 90.5651 43.4173L52.0568 42.2694Z" fill="#13718F"/>
<path d="M78.0835 12.3037L68.7796 13.9711L69.2266 3.09648C69.2266 3.09648 69.2508 3.04815 69.275 3.03607L82.6871 0.0878243C82.7716 0.0636584 82.8441 0.148239 82.8079 0.23282L78.0835 12.3037Z" fill="#13718F"/>
<path d="M10.7572 109.161L19.8919 107.856C19.9765 107.856 22.6347 107.227 22.6227 107.3L17.5237 118.452C17.5237 118.452 17.4753 118.525 17.4391 118.537L5.75486 121.219C4.8728 121.413 5.75486 120.035 6.11734 119.226L10.6726 109.221C10.6726 109.221 10.721 109.161 10.7572 109.161Z" fill="#13718F"/>
<path d="M63.8377 40.3241L84.4028 2.08151C85.1278 0.740306 83.4725 -0.637151 82.2642 0.317403L11.603 55.4882C10.6243 56.2494 11.0351 57.796 12.2676 57.9894L52.0447 64.055L15.8321 115.903C14.6963 117.534 16.8349 119.431 18.3453 118.138L104.642 44.2027C105.717 43.2844 105.089 41.5445 103.675 41.5082L63.8377 40.3362V40.3241Z" fill="#282828"/>
</svg>
